<?xml version="1.0" encoding="utf-8"?>
<!-- Generator: Adobe Illustrator 25.1.0, SVG Export Plug-In . SVG Version: 6.00 Build 0)  -->
<svg version="1.1" id="Layer_1" xmlns="http://www.w3.org/2000/svg" xmlns:xlink="http://www.w3.org/1999/xlink" x="0px" y="0px"
	 viewBox="0 0 512 512" style="enable-background:new 0 0 512 512;" xml:space="preserve">
<style type="text/css">
	.st0{fill:#000E60;}
</style>
<g id="Online_class_community">
	<path class="st0" d="M465.3,32.9H46.7c-17.4,0-31.5,14.1-31.5,31.5v298c0,17.4,14.1,31.5,31.5,31.5h171.5l-10.3,75.1h-23.3
		c-2.8,0-5,2.2-5,5s2.2,5,5,5h144.9c2.8,0,5-2.2,5-5s-2.2-5-5-5H306L295.7,394h169.6c17.4,0,31.5-14.1,31.5-31.5v-298
		C496.8,47,482.7,32.9,465.3,32.9z M377,135.7c-6.7-7.3-6.2-18.6,1.1-25.3s18.6-6.2,25.3,1.1c6.3,6.9,6.3,17.4-0.1,24.3
		c-3.8,4.1-5.6,9.5-5.1,15c0.5,5.2,3.2,9.9,7.4,13c1.5,1.1,3.2,2.1,5,2.8c8,3.3,13.3,11.7,13.3,20.8v5.2h-67v-5.4
		c0-9,5.3-17.3,13.3-20.6c0.9-0.4,1.8-0.8,2.7-1.3c4.9-2.8,8.3-7.6,9.1-13.2C382.9,146.2,381.1,140.1,377,135.7z M414.1,158.3
		L414.1,158.3c-1.1-0.5-2.1-1-3.1-1.8c-2.1-1.6-3.5-4-3.7-6.6c-0.3-3,0.7-5.9,2.8-8.1c10.1-10.9,9.4-28-1.5-38s-28-9.4-38,1.5
		c-9.5,10.3-9.5,26.1-0.1,36.5c2.2,2.4,3.3,5.7,2.8,8.9c-0.4,2.9-2.2,5.4-4.7,6.8c-0.5,0.3-1.1,0.6-1.7,0.8
		c-11.6,4.9-19,16.3-18.8,28.9v5.4h-23.3v-12.9c0-2.5-2-4.5-4.5-4.5h-23v-16c0-4.9-4-8.9-8.9-8.9h-27.8V88.6h226.4v104h-53.9v-5.2
		C433.1,174.8,425.7,163.3,414.1,158.3L414.1,158.3z M256.4,244.7h-36v-60.4h95.2v60.4h-32.1c-1.1,0-2.2,0.4-3,1.1l-19.6,17.4v-14
		C260.9,246.7,258.9,244.7,256.4,244.7L256.4,244.7z M161.8,316.7v-5.3c0.2-12.6-7.3-24.1-18.9-29.1c-1.1-0.5-2.1-1-3.1-1.8
		c-2.1-1.6-3.5-4-3.7-6.6c-0.3-3,0.7-5.9,2.8-8.1c10.1-10.9,9.4-28-1.5-38c-10.9-10.1-28-9.4-38,1.5c-9.5,10.3-9.5,26.1-0.1,36.5
		c2.2,2.4,3.3,5.7,2.8,8.9c-0.4,2.9-2.1,5.4-4.7,6.8c-0.5,0.3-1.1,0.6-1.7,0.8c-11.6,4.9-19,16.3-18.8,28.9v5.5H25.1V201.6h161.3
		v16.6c0,4.9,4,8.9,8.9,8.9h16.1v22.1c0,2.5,2,4.5,4.5,4.5h35.6v63L161.8,316.7z M105.8,259.7c-6.7-7.3-6.2-18.6,1.1-25.3
		c7.3-6.7,18.6-6.2,25.3,1.1c6.3,6.9,6.3,17.4-0.1,24.3c-3.8,4.1-5.6,9.5-5.1,15c0.5,5.2,3.2,9.9,7.4,13c1.5,1.1,3.2,2.1,5,2.8l0,0
		c8,3.3,13.3,11.7,13.3,20.8v5.2h-67v-5.4c0-9,5.3-17.3,13.2-20.5c0.9-0.4,1.8-0.8,2.7-1.3c4.9-2.8,8.3-7.6,9.1-13.2
		C111.8,270.2,109.9,264.1,105.8,259.7L105.8,259.7z M288.1,175.3h-72.2c-2.5,0-4.5,2-4.5,4.5v38.4h-16v-58.7h92.7V175.3z
		 M195.3,150.4c-4.9,0-8.9,4-8.9,8.9v33.3h-24.7v-5.2c0.2-12.6-7.3-24.1-18.9-29.1h0c-1.1-0.5-2.1-1-3.1-1.8c-2.1-1.6-3.5-4-3.7-6.6
		c-0.3-3,0.7-5.9,2.8-8.1c10.1-10.9,9.4-28-1.5-38s-28-9.4-38,1.5c-9.5,10.3-9.5,26.1-0.1,36.5c2.2,2.4,3.3,5.7,2.8,8.9
		c-0.4,2.9-2.1,5.4-4.7,6.8c-0.5,0.3-1.1,0.6-1.7,0.8c-11.6,4.9-19,16.3-18.8,28.9v5.4H25.1v-104h226.4v61.8H195.3z M105.8,135.7
		c-6.7-7.3-6.2-18.6,1.1-25.3c7.3-6.7,18.6-6.2,25.3,1.1c6.3,6.9,6.3,17.4-0.1,24.3c-3.8,4.1-5.6,9.5-5.1,15c0.5,5.2,3.2,9.9,7.4,13
		c1.5,1.1,3.2,2.1,5,2.8c8,3.3,13.3,11.7,13.3,20.8v5.2h-67v-5.4c0-9,5.3-17.3,13.3-20.6c0.9-0.4,1.8-0.8,2.7-1.3
		c4.9-2.8,8.3-7.6,9.1-13.2C111.8,146.2,109.9,140.1,105.8,135.7z M46.7,42.9h418.7c11.9,0,21.5,9.6,21.5,21.5v14.2H25.1V64.4
		C25.1,52.6,34.8,42.9,46.7,42.9z M295.9,469.1H218l10.3-75.1h57.4L295.9,469.1z M465.3,384H46.7c-11.9,0-21.5-9.6-21.5-21.5v-36.7
		H256c0,0,0,0,0,0s0,0,0,0h170.7c0.2,0,0.3,0,0.5,0h1.2c2.5,0,4.5-2,4.5-4.5v-9.7c0.2-12.6-7.3-24.1-18.9-29.1
		c-1.1-0.5-2.1-1-3.1-1.8c-2.1-1.6-3.5-4-3.7-6.6c-0.3-3,0.7-5.9,2.8-8.1c10.1-10.9,9.4-28-1.5-38c-10.9-10.1-28-9.4-38,1.5
		c-9.5,10.3-9.5,26.1-0.1,36.5c2.2,2.4,3.3,5.7,2.8,8.9c-0.4,2.9-2.1,5.4-4.7,6.8c-0.5,0.3-1.1,0.6-1.7,0.8
		c-11.6,4.9-19,16.3-18.8,28.9v5.5h-87.5v-41.1l24.8-21.9h34.9c2.5,0,4.5-2,4.5-4.5v-47.6h162.2v115.1h-37.8c-2.5,0-4.5,2-4.5,4.5
		s2,4.5,4.5,4.5h37.8v36.7C486.9,374.3,477.2,383.9,465.3,384z M377,259.7c-6.7-7.3-6.2-18.6,1.1-25.3c7.3-6.7,18.6-6.2,25.3,1.1
		c6.3,6.9,6.3,17.4-0.1,24.3c-3.8,4.1-5.6,9.5-5.1,15c0.5,5.2,3.2,9.9,7.4,13c1.5,1.1,3.2,2.1,5,2.8l0,0c8,3.3,13.3,11.7,13.3,20.8
		v5.2h-67v-5.4c0-9,5.3-17.3,13.2-20.5c0.9-0.4,1.8-0.8,2.7-1.3c4.9-2.8,8.3-7.6,9.1-13.2C382.9,270.2,381.1,264.1,377,259.7z"/>
	<path class="st0" d="M256,338.4c-9.2,0-16.7,7.5-16.7,16.7c0,9.2,7.5,16.7,16.7,16.7c9.2,0,16.7-7.5,16.7-16.7c0,0,0,0,0,0
		C272.7,345.9,265.2,338.4,256,338.4z M256,361.8c-3.7,0-6.7-3-6.7-6.7c0-3.7,3-6.7,6.7-6.7c3.7,0,6.7,3,6.7,6.7c0,0,0,0,0,0
		C262.7,358.8,259.7,361.8,256,361.8L256,361.8z"/>
	<path class="st0" d="M237.3,210.7h61.2c2.5,0,4.5-2,4.5-4.5s-2-4.5-4.5-4.5h-61.2c-2.5,0-4.5,2-4.5,4.5S234.8,210.7,237.3,210.7z"
		/>
	<path class="st0" d="M273,225.9c0-2.5-2-4.5-4.5-4.5h-31.3c-2.5,0-4.5,2-4.5,4.5s2,4.5,4.5,4.5h31.3C271,230.4,273,228.4,273,225.9
		z"/>
	<path class="st0" d="M298.4,221.4h-13.8c-2.5,0-4.5,2-4.5,4.5s2,4.5,4.5,4.5h13.8c2.5,0,4.5-2,4.5-4.5S300.9,221.4,298.4,221.4z"/>
	<path class="st0" d="M399.3,130.7c1.5-1.2,1.7-3.4,0.5-4.9c-1.2-1.5-3.4-1.7-4.9-0.5c-2.5,2.3-6.3,2.3-8.8,0.1
		c-1.4-1.3-3.7-1.1-4.9,0.3c-1.3,1.4-1.1,3.7,0.3,4.9l0,0c2.5,2.2,5.7,3.4,9.1,3.4C393.8,134,396.9,132.8,399.3,130.7z"/>
	<path class="st0" d="M128.1,130.7c1.5-1.2,1.7-3.4,0.5-4.9c-1.2-1.5-3.4-1.7-4.9-0.5c-2.5,2.3-6.3,2.3-8.8,0.1
		c-1.4-1.3-3.7-1.1-4.9,0.3c-1.3,1.4-1.1,3.7,0.3,4.9l0,0c2.5,2.2,5.7,3.4,9.1,3.4C122.6,134,125.7,132.8,128.1,130.7z"/>
	<path class="st0" d="M399.3,254.8c1.5-1.2,1.7-3.4,0.5-4.9s-3.4-1.7-4.9-0.5l0,0c-2.5,2.3-6.3,2.3-8.8,0.1
		c-1.4-1.3-3.7-1.1-4.9,0.3c-1.3,1.4-1.1,3.7,0.3,4.9c2.5,2.2,5.7,3.4,9.1,3.4C393.8,258,396.9,256.8,399.3,254.8z"/>
	<path class="st0" d="M128.1,254.8c1.5-1.2,1.7-3.4,0.5-4.9c-1.2-1.5-3.4-1.7-4.9-0.5c-2.5,2.3-6.3,2.3-8.8,0.1
		c-1.4-1.3-3.7-1.1-4.9,0.3s-1.1,3.7,0.3,4.9c2.5,2.2,5.7,3.4,9.1,3.4C122.6,258,125.7,256.8,128.1,254.8z"/>
</g>
</svg>
