<?xml version="1.0" encoding="utf-8"?>
<!-- Generator: Adobe Illustrator 25.1.0, SVG Export Plug-In . SVG Version: 6.00 Build 0)  -->
<svg version="1.1" id="Layer_1" xmlns="http://www.w3.org/2000/svg" xmlns:xlink="http://www.w3.org/1999/xlink" x="0px" y="0px"
	 viewBox="0 0 512 512" style="enable-background:new 0 0 512 512;" xml:space="preserve">
<style type="text/css">
	.st0{fill:#000E60;}
</style>
<g id="Online_class_real-time">
	<path class="st0" d="M465.3,97.4h-27.6l-0.1-73.6c0-8.5-6.9-15.5-15.5-15.5H261.7c-8.5,0-15.5,6.9-15.5,15.5v49.6l-33.4,24h-16.5
		v-2.6c0-16.9-13.7-30.6-30.7-30.7h-40.2c-16.9,0-30.6,13.7-30.7,30.7v2.6H46.7c-17.4,0-31.5,14.1-31.5,31.5v258
		c0,17.4,14.1,31.5,31.5,31.5h171.5l-10.3,75.1h-24.4c-2.8,0-5,2.2-5,5s2.2,5,5,5h146.9c2.8,0,5-2.2,5-5s-2.2-5-5-5H306l-10.3-75.1
		h169.6c17.4,0,31.5-14.1,31.5-31.5V129C496.8,111.5,482.7,97.4,465.3,97.4z M218,493.6l10.3-75.1h57.4l10.3,75.1H218z M421.8,196.5
		c-5.1-5.5-4.7-14.1,0.8-19.2s14.1-4.7,19.2,0.8c4.8,5.2,4.8,13.2,0,18.4c-3.2,3.5-4.8,8.1-4.4,12.8c0.4,4.4,2.7,8.5,6.3,11.1
		c1.3,0.9,2.7,1.7,4.2,2.4h0c6.3,2.8,10.3,9.1,10.2,16v16.5h-52.3v-16.7c-0.1-6.8,3.9-13,10.2-15.8c0.8-0.3,1.5-0.7,2.3-1.1
		c4.2-2.4,7.1-6.5,7.8-11.3C426.9,205.4,425.3,200.3,421.8,196.5z M451.4,214.5c-0.8-0.3-1.6-0.8-2.3-1.3c-1.5-1.1-2.5-2.8-2.7-4.7
		c-0.2-2.1,0.5-4.3,2-5.8c8.5-9.2,7.9-23.5-1.3-31.9c-9.2-8.5-23.5-7.9-31.9,1.3c-8,8.6-8,21.9-0.1,30.6c1.6,1.7,2.4,4.1,2,6.5
		c-0.3,2.1-1.5,3.8-3.3,4.9c-0.4,0.2-0.8,0.4-1.2,0.6c-9.7,4.1-15.9,13.6-15.7,24.1v16.7h-18.6V150.9h108.6v104.5h-19.7v-16.5
		C467.3,228.3,461.1,218.7,451.4,214.5z M369.2,177.8c-0.1-0.1-0.2-0.1-0.2-0.2l-16.1-12.1l9.7-12.9c0.4-0.6,0.8-1.1,1.1-1.7h5.6
		L369.2,177.8z M344.9,211.7c-5.1,1.2-9.6,4.2-12.8,8.3l-4.3,5.8l-20.7-15.5l4.9-6.5c2.7-3.6,4.3-8,4.4-12.6l0.2-5.1
		c0.1-3.1,1.2-6.1,3-8.6L347,141c1.6-2.1,4.5-2.5,6.6-1c2.1,1.6,2.5,4.5,1,6.6c0,0,0,0,0,0l-12.7,16.9c-1.7,2.2-1.2,5.3,1,7
		l20.1,15.1c5.2,3.9,6.2,11.2,2.4,16.4c0,0,0,0,0,0l-2.6,3.4c-1.2,1.6-3,2.8-5,3.2L344.9,211.7z M197.1,272
		c-2.1,0.7-3.5,2.6-3.5,4.8v64h-80.9v-62.9c0-2.8-2.2-5-5-5s-5,2.2-5,5v62.9H64.3v-93.1c0-17.1,13.9-31,31-31h26.8l12.4,7.4
		l12.7,7.5c2.3,1.4,4.9,2.1,7.6,2.1c1.2,0,2.4-0.2,3.6-0.5c0,0,0.1,0,0.1,0c0.2-0.1,0.4-0.1,0.6-0.2c0.1,0,0.2-0.1,0.3-0.1
		c0.1,0,0.2-0.1,0.3-0.1c0.8-0.3,1.6-0.7,2.4-1.1c3.8-2.1,6.4-5.8,7.3-10c0.2-1,0.3-2,0.3-3v-2h28.2c13.3,0,25.4,7.4,31.4,19.2
		l13.7,26.7c2.8,5.5,9.6,7.7,15.1,4.9c1.6-0.8,2.9-2,4-3.4l34.6-47.6l29,22.7l-40.1,54.4c-14.1,19.1-40.9,23.1-60,9
		c-3.6-2.7-6.8-5.9-9.4-9.6l-13.7-19.1C201.4,272,199.2,271.3,197.1,272z M25.1,340.7V150.9h55.7c3.6,5.8,9.6,9.7,16.4,10.6
		c3.6,11.5,11.1,21.3,21.2,27.7v17.4H95.3c-22.7,0-41,18.4-41,41v93.1H25.1z M211,150.9h116l-15.5,20.7c-3.1,4.1-4.9,9.1-5,14.3
		l-0.2,5.1c-0.1,2.5-0.9,4.9-2.4,6.9l-5.3,7.1c-2.2-1.4-5.2-0.9-6.7,1.3L254.2,258c-0.4,0.5-1.2,0.7-1.7,0.3
		c-0.2-0.1-0.3-0.3-0.4-0.4l-13.7-26.7c-7.7-15.2-23.3-24.7-40.3-24.6h-28.2v-15.7c11-6,19.3-15.8,23.6-27.5
		C201.1,162.6,207.8,157.8,211,150.9z M159.9,211.5v7c0,1.3-0.5,2.5-1.4,3.5c-0.5,0.5-1.2,0.9-1.9,1.2c-0.9,0.3-1.8,0.4-2.8,0.2
		c-0.5-0.1-1-0.3-1.5-0.6l-23.9-14.1V194c10.1,3.6,21.1,3.9,31.4,0.9L159.9,211.5L159.9,211.5z M191.4,153.4
		c-6.4,0-11.6-5.2-11.6-11.6s5.2-11.6,11.6-11.6c6.4,0,11.6,5.2,11.6,11.6C203,148.2,197.8,153.4,191.4,153.4L191.4,153.4z
		 M186.4,94.9v10.7l-59.5-0.3h-0.1c-7.3,0-13.5,5.4-14.7,12.6l-0.5,3.4c-0.3,1.7-1.8,2.8-3.5,2.5c-0.9-0.1-1.7-0.7-2.1-1.4l-1.1-1.8
		V94.9c0-3.1,0.7-6.2,2.1-9c1.9-3.9,4.9-7.1,8.7-9.2c3-1.6,6.4-2.5,9.8-2.5h40.2C177.2,74.2,186.4,83.5,186.4,94.9L186.4,94.9z
		 M97.3,127.2l0.2,0.4c2.3,3.9,6.5,6.3,11.1,6.3c0.9,0,1.8-0.1,2.6-0.3c5.4-1,9.5-5.4,10.3-10.8l0.5-3.4c0.4-2.4,2.4-4.1,4.8-4.1h0
		l59.5,0.3v5.2c-7.9,1.9-14.1,8.1-16,16h-4.8c-0.3,0-0.6,0-1,0.1c-2.7-11.6-14.3-18.9-26-16.2s-18.9,14.3-16.2,26
		c2.7,11.6,14.3,18.9,26,16.2c8-1.9,14.3-8.1,16.2-16.2c0.3,0.1,0.6,0.1,1,0.1h4.8c1.6,6.8,6.4,12.4,12.9,15
		c-8.6,20.8-32.5,30.6-53.2,22c-12.1-5-21.1-15.6-24.1-28.4c-0.5-2.3-2.5-3.9-4.9-3.9c-0.1,0-0.2,0-0.3,0l-0.2,0c-0.2,0-0.4,0-0.7,0
		c-6.8,0-12.4-5.5-12.4-12.4C87.6,133.4,91.6,128.4,97.3,127.2L97.3,127.2z M155.2,141.8c0,6.4-5.2,11.6-11.6,11.6
		c-6.4,0-11.6-5.2-11.6-11.6c0-6.4,5.2-11.6,11.6-11.6c0,0,0,0,0,0C150,130.2,155.2,135.4,155.2,141.8z M465.3,107.4
		c11.9,0,21.5,9.6,21.5,21.5v11.9h-50.1c0.7-1.7,1-3.6,1-5.5l0-28H465.3z M254.2,80.1c1.3-0.9,2.1-2.5,2.1-4.1V23.9
		c0-3,2.5-5.5,5.5-5.5h160.5c3,0,5.5,2.5,5.5,5.5l0.1,111.5c0,3-2.4,5.5-5.5,5.5h-57.1c-1.6-8-9.4-13.1-17.3-11.5
		c-3.6,0.7-6.7,2.7-8.9,5.6l-4.4,5.9h-72.7c-3,0-5.5-2.5-5.5-5.5l-0.1-33c0-2.8-2.2-5-5-5H230L254.2,80.1z M214.5,107.4h31.8l0.1,28
		c0,1.9,0.3,3.7,1,5.5H213c-0.4-9.7-7.2-17.9-16.6-20.1v-10.1c0,0,0,0,0,0v-3.2L214.5,107.4z M46.7,107.4h48.3v10
		c-10.2,2.3-17.3,11.4-17.4,21.8c0,0.6,0,1.1,0.1,1.6H25.1V129C25.1,117.1,34.8,107.4,46.7,107.4z M465.3,408.5H46.7
		c-11.9,0-21.5-9.6-21.5-21.5v-36.2H415c2.8,0,5-2.2,5-5s-2.2-5-5-5H203.6v-48.4l4.6,6.4c17,23.8,50,29.3,73.8,12.3
		c4.5-3.2,8.5-7.2,11.8-11.6l43-58.3c1.6-2.2,1.2-5.2-0.9-6.9l-1.1-0.9l5.4-7.2c1.7-2.3,4.2-3.9,7-4.6l0,0l13-3
		c3.5-0.8,6.6-2.6,9.1-5.2v46.6c0,2.5,2,4.5,4.5,4.5h113.1v76.3h-49.5c-2.8,0-5,2.2-5,5s2.2,5,5,5h49.5v36.2
		C486.9,398.8,477.2,408.4,465.3,408.5L465.3,408.5z"/>
	<path class="st0" d="M308.2,93.4c16.3,0,29.5-13.2,29.5-29.5s-13.2-29.5-29.5-29.5c-16.3,0-29.5,13.2-29.5,29.5v0
		C278.7,80.2,291.9,93.4,308.2,93.4z M308.2,44.4c10.8,0,19.5,8.7,19.5,19.5s-8.7,19.5-19.5,19.5c-10.8,0-19.5-8.7-19.5-19.5l0,0
		C288.7,53.1,297.5,44.4,308.2,44.4L308.2,44.4z"/>
	<path class="st0" d="M349.4,113.7h54.7c2.8,0,5-2.2,5-5c0-0.9-0.3-1.8-0.7-2.6L381,61.3c-1.4-2.4-4.5-3.1-6.9-1.7
		c-0.7,0.4-1.2,1-1.7,1.7l-27.4,44.8c-1.4,2.4-0.7,5.4,1.7,6.9C347.6,113.5,348.5,113.7,349.4,113.7L349.4,113.7z M376.8,73.5
		l18.5,30.2h-36.9L376.8,73.5z"/>
	<path class="st0" d="M383.3,46.6h6.3v6.3c0,2.2,1.8,4,4,4s4-1.8,4-4v-6.3h6.3c2.2,0,4-1.8,4-4s-1.8-4-4-4h-6.3v-6.3
		c0-2.2-1.8-4-4-4s-4,1.8-4,4v6.3h-6.3c-2.2,0-4,1.8-4,4S381.1,46.6,383.3,46.6z"/>
	<path class="st0" d="M307.9,114.6h-20.6c-2.2,0-4,1.8-4,4s1.8,4,4,4h20.6c2.2,0,4-1.8,4-4S310.1,114.6,307.9,114.6L307.9,114.6z"/>
	<path class="st0" d="M256,362.9c-9.2,0-16.7,7.5-16.7,16.7c0,9.2,7.5,16.7,16.7,16.7c9.2,0,16.7-7.5,16.7-16.7
		C272.7,370.4,265.2,362.9,256,362.9z M256,386.3c-3.7,0-6.7-3-6.7-6.7s3-6.7,6.7-6.7c3.7,0,6.7,3,6.7,6.7
		C262.7,383.3,259.7,386.3,256,386.3z"/>
</g>
</svg>
