<?xml version="1.0" encoding="utf-8"?>
<!-- Generator: Adobe Illustrator 25.1.0, SVG Export Plug-In . SVG Version: 6.00 Build 0)  -->
<svg version="1.1" id="Layer_1" xmlns="http://www.w3.org/2000/svg" xmlns:xlink="http://www.w3.org/1999/xlink" x="0px" y="0px"
	 viewBox="0 0 300 300" style="enable-background:new 0 0 300 300;" xml:space="preserve">
<style type="text/css">
	.st0{fill:#000E60;}
	.st1{fill:none;stroke:#000E60;stroke-width:5;stroke-linecap:round;stroke-linejoin:round;stroke-miterlimit:10;}
</style>
<path class="st0" d="M150,46.9c21.5,0,42.3,6.1,60.4,17.7c17.6,11.3,31.6,27.1,40.7,45.8l1.4,2.8h3.1h16.3c6.5,0,11.8,5.3,11.8,11.8
	v53.1c0,6.5-5.3,11.8-11.8,11.8h-16.6c-0.3,0-0.6,0-0.9,0c0.1-0.2,0.1-0.4,0.2-0.5c0.6-2,1.1-4,1.6-6.3c0.2-0.7,0.3-1.4,0.4-2.1
	l0-0.2c0.2-0.9,0.4-1.9,0.5-2.8c0.4-2.4,0.8-4.9,1-7.4c0.1-0.8,0.2-1.7,0.2-2.5c0.1-0.6,0.1-1.2,0.1-1.8c0-0.1,0-0.2,0-0.3l0-0.1
	l0-0.1l0.1-1l0-0.9c0-0.7,0.1-1.3,0.1-2c0-0.9,0-1.8,0-2.8c0-1.1,0-2.2-0.1-3.2c0-1.1-0.1-2.1-0.1-3.2c-0.1-0.9-0.1-1.8-0.2-2.8
	c-0.2-1.9-0.4-3.6-0.6-5.2c-0.1-0.7-0.2-1.4-0.3-2.2c-0.1-0.8-0.2-1.5-0.4-2.3c-0.2-1-0.4-2-0.6-3.1l0-0.2c-0.2-0.9-0.4-1.9-0.6-2.8
	c-0.4-1.7-0.8-3.4-1.3-5.1c-0.2-0.6-0.4-1.2-0.6-1.8c-0.1-0.2-0.1-0.4-0.2-0.6c0-0.1-0.1-0.3-0.1-0.4l0-0.1l0-0.1
	c-0.1-0.2-0.1-0.3-0.1-0.5l-0.8-3l0-0.6l-0.6-0.6l-0.8-2.2h-0.1c-0.3-0.8-0.6-1.6-0.9-2.3l-0.3-0.9l-0.2-0.2
	c-0.3-0.6-0.6-1.2-0.8-1.9c-0.4-1-0.9-1.9-1.3-2.7c-0.5-1-1-2-1.6-3.2l-0.1-0.1l0-0.1l0-0.1c-0.5-0.9-1-1.9-1.6-2.8l0,0l0,0
	l-0.2-0.3l-0.2-0.4c-1.2-2-2.4-4-3.7-5.9l-0.3-0.4l0,0l0-0.1l0,0c-0.7-1-1.3-1.9-1.9-2.7c-0.4-0.6-0.9-1.2-1.4-1.8l-0.3-0.4
	l-0.1-0.1l-0.1-0.1c-0.1-0.1-0.2-0.2-0.2-0.3c-0.1-0.2-0.2-0.3-0.4-0.5c-0.1-0.1-0.2-0.3-0.3-0.4c-0.5-0.7-1.1-1.5-1.8-2.2
	c-1.8-2.1-3.6-4.2-5.6-6.2c-0.7-0.7-1.3-1.4-2-2c-1.5-1.5-3.1-2.9-4.8-4.4l0,0l-0.8-0.7c-1-0.9-2-1.7-2.9-2.4l-0.2-0.2
	c-1.8-1.4-3.6-2.8-5.5-4.1l-0.1-0.1l-0.7-0.5c-0.8-0.5-1.7-1.1-2.5-1.6c-1.1-0.7-2.2-1.4-3.2-1.9c-0.5-0.3-1-0.6-1.6-0.9L203,64
	c-0.8-0.4-1.6-0.9-2.3-1.3c-1.8-0.9-3.7-1.9-5.6-2.7c-0.4-0.2-0.8-0.4-1.2-0.5c-2.6-1.2-5.4-2.2-8.2-3.2l-1.2-0.4
	c-5.1-1.7-10.4-3-15.6-4c-0.8-0.1-1.6-0.3-2.4-0.4c-0.9-0.1-1.8-0.3-2.6-0.4c-0.9-0.1-1.8-0.2-2.7-0.3c-0.6-0.1-1.1-0.1-1.7-0.2
	l-0.1,0c-0.5-0.1-1-0.1-1.4-0.1c-0.5,0-1-0.1-1.5-0.1l-0.7,0l-0.1,0l-0.1,0c-0.8,0-1.6-0.1-2.4-0.1c-1,0-2.1-0.1-3.2-0.1
	c-1.1,0-2.1,0-3.1,0.1c-0.8,0-1.6,0.1-2.4,0.1l-0.1,0l-0.1,0l-0.7,0c-0.5,0-1,0.1-1.5,0.1c-0.5,0-0.9,0.1-1.4,0.1l-0.1,0
	c-0.6,0-1.1,0.1-1.7,0.2c-0.9,0.1-1.8,0.2-2.7,0.3c-0.9,0.1-1.8,0.2-2.7,0.4c-0.8,0.1-1.6,0.2-2.4,0.4c-5.3,0.9-10.5,2.3-15.6,4
	l-1.3,0.4c-2.7,1-5.5,2-8.1,3.2c-0.4,0.2-0.8,0.4-1.2,0.5c-1.9,0.9-3.8,1.8-5.6,2.8c-0.8,0.4-1.5,0.8-2.4,1.3l-0.5,0.3
	c-0.5,0.3-1,0.6-1.5,0.9c-1,0.6-2.1,1.3-3.2,2c-0.8,0.5-1.7,1.1-2.6,1.7L89,68.9l-0.7,0.5c-1.9,1.3-3.7,2.7-5.5,4.1l-0.1,0.1
	l-0.1,0.1c-0.9,0.7-1.9,1.5-2.9,2.3L79.6,76l0,0l0,0l-0.6,0.5l0,0c-1.7,1.4-3.3,2.9-4.8,4.4c-0.7,0.7-1.3,1.3-2,2
	c-2,2-3.9,4.1-5.6,6.2c-0.7,0.8-1.3,1.5-1.8,2.2c-0.1,0.2-0.3,0.3-0.4,0.5c-0.1,0.2-0.2,0.3-0.4,0.5c-0.1,0.1-0.2,0.2-0.2,0.3
	l-0.1,0.1l-0.1,0.1l-0.3,0.4c-0.5,0.6-0.9,1.2-1.4,1.8c-0.6,0.8-1.2,1.7-1.9,2.7l0,0l-0.3,0.4c-1.3,1.9-2.5,3.9-3.7,5.8l-0.3,0.4
	l-0.2,0.3l0,0l0,0c-0.5,0.9-1,1.8-1.6,2.8l0,0.1l0,0.1l-0.1,0.1c-0.6,1.1-1.1,2.2-1.6,3.1c-0.4,0.9-0.9,1.8-1.3,2.8
	c-0.3,0.6-0.6,1.3-0.8,1.9l-0.2,0.2l-0.3,0.9c-0.3,0.8-0.7,1.7-1.1,2.6c-0.4,1-0.8,2-1.1,2.8c-0.3,0.8-0.6,1.6-0.9,2.5
	c-0.3,0.8-0.5,1.6-0.7,2.3c-0.2,0.6-0.4,1.3-0.6,1.9c-0.5,1.7-0.9,3.4-1.3,5.1c-0.2,0.9-0.4,1.9-0.6,2.8l-0.1,0.3
	c-0.2,1-0.4,2.1-0.6,3c-0.1,0.8-0.3,1.5-0.4,2.3c-0.1,0.8-0.2,1.5-0.3,2.1c-0.2,1.7-0.4,3.4-0.6,5.3c-0.1,0.9-0.1,1.8-0.2,2.7
	c-0.1,1.1-0.1,2.1-0.1,3.2c0,1.1-0.1,2.1-0.1,3.2c0,0.9,0,1.9,0,2.8c0,0.7,0,1.3,0.1,2l0.1,1l0,0.9l0,0.1l0,0.1l0,0
	c0,0.1,0,0.2,0,0.3c0,0.6,0.1,1.2,0.1,1.8c0.1,0.8,0.2,1.7,0.2,2.5c0.3,2.5,0.6,5,1,7.4c0.2,0.9,0.3,1.9,0.5,2.8l0,0.2
	c0.1,0.7,0.3,1.4,0.4,2.1c0.5,2.2,1,4.3,1.6,6.3c0.1,0.2,0.1,0.4,0.2,0.6c-0.3,0-0.6,0-0.8,0H28.2c-6.5,0-11.8-5.3-11.8-11.8V125
	c0-6.5,5.3-11.8,11.8-11.8h16.4h3.1l1.3-2.8c9-18.7,23.1-34.6,40.7-45.8C107.7,53,128.5,46.9,150,46.9 M150,42
	c-46.4,0-86.5,27.1-105.5,66.3H28.2c-9.3,0-16.8,7.5-16.8,16.8v53.1c0,9.3,7.5,16.8,16.8,16.8h16.6c0.8,0,1.6-0.1,2.4-0.2
	c1.7-0.2,3.2-0.7,4.7-1.4c-0.1-0.4-0.3-0.8-0.4-1.3c-0.2-0.7-0.5-1.4-0.7-2.2c-0.2-0.6-0.4-1.3-0.6-1.9c-0.6-2-1.1-4-1.5-6
	c-0.1-0.6-0.3-1.3-0.4-1.9c-0.2-1-0.4-1.9-0.6-2.9c-0.4-2.3-0.7-4.7-1-7.1c-0.1-0.8-0.2-1.6-0.2-2.4c0-0.6-0.1-1.2-0.1-1.8
	c0-0.1,0-0.3,0-0.4c0-0.6-0.1-1.3-0.1-1.9c0-0.6,0-1.2-0.1-1.9c0-0.9,0-1.8,0-2.7c0-1,0-2,0-3.1c0-1,0.1-2,0.1-3.1
	c0-0.9,0.1-1.8,0.2-2.7c0.1-1.7,0.3-3.4,0.6-5c0.1-0.7,0.2-1.4,0.3-2c0.1-0.8,0.2-1.5,0.4-2.2c0.2-1,0.4-1.9,0.6-2.9
	c0.2-1,0.4-1.9,0.6-2.9c0.4-1.6,0.8-3.3,1.3-4.9c0.2-0.6,0.3-1.2,0.5-1.7c0.2-0.8,0.5-1.5,0.7-2.3c0.3-0.8,0.5-1.6,0.8-2.4
	c0.3-0.9,0.7-1.8,1-2.7c0.3-0.9,0.7-1.8,1.1-2.6c0,0,0,0,0-0.1c0.4-0.9,0.8-1.8,1.2-2.7c0.4-0.9,0.8-1.7,1.2-2.6
	c0.5-1,1-2.1,1.6-3.1c0-0.1,0.1-0.1,0.1-0.2c0.5-0.9,1-1.8,1.5-2.7c0.1-0.2,0.3-0.5,0.4-0.8c1.1-1.9,2.3-3.8,3.5-5.6
	c0,0,0-0.1,0-0.1c0.7-1,1.4-2,2-2.9c0.5-0.7,1.1-1.5,1.6-2.2c0.2-0.3,0.4-0.6,0.7-0.9c0.1-0.1,0.2-0.2,0.3-0.4
	c0.6-0.7,1.2-1.5,1.7-2.2c1.7-2.1,3.5-4,5.4-5.9c0.6-0.6,1.3-1.3,1.9-1.9c1.7-1.6,3.4-3.2,5.2-4.7c0,0,0,0,0.1-0.1
	c0.9-0.8,1.8-1.5,2.7-2.2c0.1-0.1,0.2-0.1,0.2-0.2c1.7-1.4,3.5-2.6,5.3-3.9c0.3-0.2,0.5-0.4,0.8-0.5c0.8-0.5,1.6-1.1,2.4-1.6
	c1-0.6,2-1.3,3.1-1.9c0.7-0.4,1.3-0.8,2-1.2c0.7-0.4,1.5-0.8,2.2-1.2c1.7-0.9,3.5-1.8,5.3-2.6c0.4-0.2,0.8-0.3,1.2-0.5
	c2.5-1.1,5.1-2.1,7.8-3.1c0.4-0.1,0.8-0.3,1.2-0.4c4.8-1.6,9.8-2.9,14.9-3.8c0.7-0.1,1.5-0.3,2.2-0.4c0.9-0.1,1.7-0.3,2.6-0.4
	c0.9-0.1,1.7-0.2,2.6-0.3c0.6-0.1,1.2-0.1,1.7-0.2c0.4,0,0.8-0.1,1.3-0.1c0.8-0.1,1.5-0.1,2.3-0.1c0.8,0,1.6-0.1,2.3-0.1
	c1,0,2,0,3,0c1,0,2,0,3,0c0.8,0,1.6,0,2.3,0.1c0.8,0,1.5,0.1,2.3,0.1c0.4,0,0.8,0,1.3,0.1c0.6,0,1.2,0.1,1.7,0.2
	c0.9,0.1,1.7,0.2,2.6,0.3c0.9,0.1,1.7,0.2,2.6,0.4c0.7,0.1,1.5,0.2,2.2,0.4c5.1,0.9,10.1,2.2,14.9,3.8c0.4,0.1,0.8,0.3,1.2,0.4
	c2.6,0.9,5.2,1.9,7.8,3.1c0.4,0.2,0.8,0.3,1.2,0.5c1.8,0.8,3.6,1.7,5.3,2.6c0.7,0.4,1.5,0.8,2.2,1.2c0.7,0.4,1.3,0.8,2,1.2
	c1,0.6,2,1.2,3.1,1.9c0.8,0.5,1.6,1.1,2.4,1.6c0.3,0.2,0.5,0.4,0.8,0.5c1.8,1.2,3.5,2.5,5.3,3.9c0.1,0.1,0.2,0.1,0.2,0.2
	c0.9,0.7,1.8,1.5,2.7,2.2c0,0,0,0,0.1,0.1c1.8,1.5,3.5,3.1,5.2,4.7c0.6,0.6,1.3,1.3,1.9,1.9c1.9,1.9,3.7,3.9,5.4,5.9
	c0.6,0.7,1.2,1.4,1.7,2.2c0.1,0.1,0.2,0.2,0.3,0.4c0.2,0.3,0.4,0.6,0.7,0.9c0.5,0.7,1.1,1.5,1.6,2.2c0.7,1,1.4,1.9,2,2.9
	c0,0,0,0,0,0.1c1.2,1.8,2.4,3.7,3.5,5.6c0.1,0.2,0.3,0.5,0.4,0.8c0.5,0.9,1,1.8,1.5,2.7c0,0.1,0.1,0.1,0.1,0.2c0.5,1,1.1,2,1.6,3.1
	c0.4,0.9,0.8,1.7,1.2,2.6c0.4,0.9,0.8,1.8,1.2,2.7c0,0,0,0,0,0.1c0.4,0.9,0.7,1.7,1.1,2.6c0.4,0.9,0.7,1.8,1,2.7c0,0,0,0,0,0.1h0
	c0.3,0.8,0.5,1.5,0.8,2.3c0,0.1,0.1,0.3,0.1,0.5h0c0.1,0.2,0.1,0.5,0.2,0.7c0.1,0.3,0.2,0.7,0.3,1c0.2,0.6,0.4,1.2,0.5,1.7
	c0.5,1.6,0.9,3.2,1.3,4.9c0.2,1,0.4,1.9,0.6,2.9c0.2,1,0.4,1.9,0.6,2.9c0.1,0.7,0.2,1.5,0.4,2.2c0.1,0.7,0.2,1.3,0.3,2
	c0.2,1.7,0.4,3.3,0.6,5c0.1,0.9,0.1,1.8,0.2,2.7c0.1,1,0.1,2,0.1,3.1s0,2,0,3.1c0,0.9,0,1.8,0,2.7c0,0.6,0,1.3-0.1,1.9
	c0,0.6-0.1,1.3-0.1,1.9c0,0.1,0,0.3,0,0.4c0,0.6-0.1,1.2-0.1,1.8c-0.1,0.8-0.1,1.6-0.2,2.4c-0.2,2.4-0.6,4.7-1,7.1
	c-0.2,1-0.4,1.9-0.6,2.9c-0.1,0.7-0.3,1.3-0.4,1.9c-0.5,2-1,4-1.6,6c-0.2,0.6-0.4,1.3-0.6,1.9c-0.2,0.7-0.5,1.4-0.7,2.2
	c-0.1,0.4-0.3,0.8-0.4,1.3c1.5,0.7,3.1,1.2,4.7,1.4c0.8,0.1,1.6,0.2,2.4,0.2h16.6c9.3,0,16.8-7.5,16.8-16.8V125
	c0-9.3-7.5-16.8-16.8-16.8h-16.3C236.5,69.1,196.4,42,150,42L150,42z"/>
<path class="st0" d="M252.8,194.7c-12.5,36-43.5,63.4-81.5,71v0.7c0,3.5-2.9,6.4-6.4,6.4h-23.5c-3.4,0-6.2-2.7-6.3-6
	c0-0.1,0-0.2,0-0.3v-3.7c0-0.3,0-0.7,0.1-1c0.5-3,3.1-5.4,6.3-5.4h23.5c2.8,0,5.2,1.8,6,4.3c36-7.4,65.2-33.4,77.1-67.4
	C249.5,194,251.1,194.5,252.8,194.7z"/>
<g>
	<path class="st1" d="M147.5,68.3c-48.5,0-87.8,39.3-87.8,87.8c0,21.6,7.8,41.4,20.8,56.7c0,0,0,0,0,0s1.1,24.4-27.2,39.6
		c-23,14.5,48.4,10.7,66.8-11.4c0.3-0.4,0.6-0.8,0.9-1.2c8.4,2.7,17.3,4.1,26.6,4.1c48.5,0,87.8-39.3,87.8-87.8
		C235.3,107.6,196,68.3,147.5,68.3z M121.6,164.3c-4.5,0-8.2-3.7-8.2-8.2c0-4.5,3.7-8.2,8.2-8.2c4.5,0,8.2,3.7,8.2,8.2
		C129.8,160.6,126.2,164.3,121.6,164.3z M147.5,164.3c-4.5,0-8.2-3.7-8.2-8.2c0-4.5,3.7-8.2,8.2-8.2c4.5,0,8.2,3.7,8.2,8.2
		C155.7,160.6,152,164.3,147.5,164.3z M173.4,164.3c-4.5,0-8.2-3.7-8.2-8.2c0-4.5,3.7-8.2,8.2-8.2c4.5,0,8.2,3.7,8.2,8.2
		C181.6,160.6,177.9,164.3,173.4,164.3z"/>
</g>
</svg>
