<?xml version="1.0" encoding="utf-8"?>
<!-- Generator: Adobe Illustrator 25.1.0, SVG Export Plug-In . SVG Version: 6.00 Build 0)  -->
<svg version="1.1" id="Layer_1" xmlns="http://www.w3.org/2000/svg" xmlns:xlink="http://www.w3.org/1999/xlink" x="0px" y="0px"
	 viewBox="0 0 512 512" style="enable-background:new 0 0 512 512;" xml:space="preserve">
<style type="text/css">
	.st0{fill:#000E60;}
</style>
<g id="E-learning_graduation">
	<path class="st0" d="M210.1,273h-9.2l-2.8-8.7v0c-1.3-4.1-5.7-6.3-9.8-5c-2.4,0.8-4.2,2.6-5,5l-2.8,8.7h-9.2
		c-4.3,0-7.8,3.5-7.8,7.8c0,2.5,1.2,4.8,3.2,6.3l7.4,5.4l-2.8,8.7c-1.3,4.1,0.9,8.5,5,9.8c2.4,0.8,5,0.4,7-1.1l7.4-5.4l7.4,5.4
		c2.7,2,6.4,2,9.1,0c2.8-2,3.9-5.5,2.8-8.7l-2.8-8.7l7.4-5.4c3.5-2.5,4.2-7.4,1.7-10.8C215,274.2,212.6,273,210.1,273L210.1,273z
		 M202.4,286.1c-2.7,2-3.9,5.5-2.8,8.7l2.7,8.2l-7-5.1c-2.7-2-6.4-2-9.1,0l-7,5.1l2.7-8.2c1-3.2-0.1-6.7-2.8-8.7l-7-5.1h8.6
		c3.4,0,6.3-2.2,7.4-5.4l2.7-8.2l2.7,8.2c1,3.2,4,5.4,7.4,5.4h8.6L202.4,286.1z"/>
	<path class="st0" d="M279.4,273h-9.2l-2.8-8.7l0,0c-1.3-4.1-5.7-6.3-9.8-5c-2.4,0.8-4.2,2.6-5,5l-2.8,8.7h-9.2
		c-4.3,0-7.8,3.5-7.8,7.8c0,2.5,1.2,4.8,3.2,6.3l7.4,5.4l-2.8,8.7c-1.1,3.2,0.1,6.7,2.8,8.7c2.7,2,6.4,2,9.1,0l7.4-5.4l7.4,5.4
		c3.5,2.5,8.3,1.8,10.8-1.7c1.5-2,1.9-4.6,1.1-7l-2.8-8.7l7.4-5.4c3.5-2.5,4.2-7.4,1.7-10.8C284.3,274.2,281.9,273,279.4,273
		L279.4,273z M271.7,286.1c-2.7,2-3.9,5.5-2.8,8.7l2.7,8.2l-7-5.1c-2.7-2-6.4-2-9.1,0l-7,5.1l2.7-8.2c1-3.2-0.1-6.7-2.8-8.7l-7-5.1
		h8.6c3.4,0,6.3-2.2,7.4-5.4l2.7-8.2l2.7,8.2c1,3.2,4,5.4,7.4,5.4h8.6L271.7,286.1z"/>
	<path class="st0" d="M348.8,273h-9.2l-2.8-8.7h0c-1.3-4.1-5.7-6.3-9.8-5c-2.4,0.8-4.2,2.6-5,5l-2.8,8.7H310c-4.3,0-7.8,3.5-7.8,7.8
		c0,2.5,1.2,4.8,3.2,6.3l7.4,5.4l-2.8,8.7c-1.3,4.1,0.9,8.5,5,9.8c2.4,0.8,4.9,0.4,7-1.1l7.4-5.4l7.4,5.4c2.7,2,6.4,2,9.1,0
		c2.8-2,3.9-5.5,2.8-8.7l-2.8-8.7l7.4-5.4c3.5-2.5,4.2-7.4,1.7-10.8C353.6,274.2,351.3,273,348.8,273L348.8,273z M341.1,286.1
		c-2.7,2-3.9,5.5-2.8,8.7l2.7,8.2l-7-5.1c-2.7-2-6.4-2-9.1,0l-7,5.1l2.7-8.2c1-3.2-0.1-6.7-2.8-8.7l-7-5.1h8.6
		c3.4,0,6.3-2.2,7.4-5.4l2.7-8.2l2.7,8.2c1,3.2,4,5.4,7.4,5.4h8.6L341.1,286.1z"/>
	<path class="st0" d="M465.3,98.8h-70.6c-1.5-2.7-3.8-4.9-6.6-6.2l-92.4-41.8c12.5-8.3,28.4-13.2,47.7-14.7
		c5.2,6.4,19.1,18.7,41.4,18.7c1.7,0,3.5-0.1,5.4-0.2c2.8-0.2,4.8-2.7,4.6-5.4c-0.2-2.8-2.7-4.8-5.4-4.6
		c-20.7,1.8-32.8-8.8-37.2-13.7c4.4-4.8,16.6-15.4,37.2-13.7c2.8,0.2,5.2-1.8,5.4-4.6c0.2-2.8-1.8-5.2-4.6-5.4
		c-25.9-2.2-41.7,12-47,18.8c-26.7,2-45.1,10.1-57.8,20l-12.5-5.7c-7.5-3.4-16.2-3.5-23.7-0.2L128.6,92.5c-2.9,1.3-5.3,3.5-6.8,6.3
		H46.7c-17.4,0-31.5,14.1-31.5,31.5v16.9c0,0,0,0,0,0s0,0,0,0V347c0,0,0,0,0,0s0,0,0,0v41.2c0,17.4,14.1,31.5,31.5,31.5h171.5
		L207.9,495h-24.4c-2.8,0-5,2.2-5,5s2.2,5,5,5h146.9c2.8,0,5-2.2,5-5s-2.2-5-5-5H306l-10.3-75.1h169.6c17.4,0,31.5-14.1,31.5-31.5
		v-258C496.8,112.9,482.7,98.8,465.3,98.8z M295.9,495H218l10.3-75.1h57.4L295.9,495z M465.3,409.8H290l0,0h-66.1l0,0H46.7
		c-11.9,0-21.5-9.6-21.5-21.5v-36.2H415c2.8,0,5-2.2,5-5s-2.2-5-5-5H25.1V152.2h116.5c2.8,0,5-2.2,5-5s-2.2-5-5-5H25.1v-11.9
		c0-11.9,9.6-21.5,21.5-21.5h73.8c0.9,4,3.6,7.4,7.3,9.3l15.2,7.8c2.4,1.3,5.5,0.4,6.8-2.1c1.3-2.4,0.4-5.5-2.1-6.8
		c0,0-0.1,0-0.1-0.1l-15.2-7.8c-2-1-2.8-3.5-1.8-5.6c0.4-0.9,1.2-1.5,2-1.9l120.5-52.3c5-2.2,10.7-2.1,15.6,0.1l8.5,3.8
		c-4,4.2-7.6,8.8-10.6,13.7c-6.9,11.3-10.8,24.2-11.4,37.5c0,2.8,2.2,5,5,5h0c2.8,0,5-2.2,5-5c0.7-11.6,4.2-22.8,10.2-32.7
		c3.2-5.2,7-10,11.5-14.1l97.1,44c2.1,0.9,3,3.4,2.1,5.5c-0.4,0.8-1,1.5-1.8,1.9l-114.4,61.4c-5.6,3-12.3,3.1-17.9,0.2l-82.1-42.2
		c-2.5-1.3-5.5-0.3-6.7,2.2c-1.3,2.5-0.3,5.5,2.2,6.7l16.2,8.3v43.1c0,24.2,34.6,43.2,78.7,43.2c10,0,20-1,29.8-3.1
		c2.7-0.6,4.4-3.3,3.8-6c-0.6-2.7-3.3-4.4-6-3.8c-9.1,2-18.3,2.9-27.6,2.9c-37.2,0-68.7-15.2-68.7-33.2v-37.9l55.9,28.8
		c8.6,4.4,18.8,4.3,27.3-0.2l54.3-29.2v38.6c0,8.1-6.9,16.3-18.9,22.5c-2.5,1.3-3.4,4.3-2.1,6.7c1.3,2.5,4.3,3.4,6.7,2.1l0,0
		c15.7-8.1,24.3-19.3,24.3-31.4v-43.9l50.1-26.9c3.6-1.9,6.1-5.2,7.1-9.1h69.3c11.9,0,21.5,9.6,21.5,21.5v11.9H368.9
		c-2.8,0-5,2.2-5,5s2.2,5,5,5h117.9v189.8h-49.5c-2.8,0-5,2.2-5,5s2.2,5,5,5h49.5v36.2C486.9,400.2,477.2,409.8,465.3,409.8z"/>
	<path class="st0" d="M256,364.3c-9.2,0-16.7,7.5-16.7,16.7c0,9.2,7.5,16.7,16.7,16.7c9.2,0,16.7-7.5,16.7-16.7
		C272.7,371.8,265.2,364.3,256,364.3z M256,387.7c-3.7,0-6.7-3-6.7-6.7c0-3.7,3-6.7,6.7-6.7c3.7,0,6.7,3,6.7,6.7c0,0,0,0,0,0
		C262.7,384.7,259.7,387.7,256,387.7L256,387.7z"/>
	<path class="st0" d="M377.3,25.9c-2.8,0-5,2.2-5,5s2.2,5,5,5h14.1c2.8,0,5-2.2,5-5s-2.2-5-5-5H377.3z"/>
</g>
</svg>
