<svg xmlns="http://www.w3.org/2000/svg" viewBox="0 0 794.32 244.41"><defs><style>.cls-1{fill:#fff;}.cls-2{fill:#dfe21e;}</style></defs><g id="Layer_2" data-name="Layer 2"><g id="Layer_1-2" data-name="Layer 1"><polygon class="cls-1" points="388.86 178.15 414.79 179.03 419.53 174.44 419.53 148.51 429.45 158.88 438.49 180.36 444.86 181.25 451.38 175.47 462.64 148.51 466.34 155.42 467.38 177.33 473.3 179.92 486.79 181.25 497.3 178.16 497.3 142.72 497.3 81.4 494.93 77.33 488.56 77.33 477.01 77.33 472.86 77.33 467.67 81.1 459.38 98.58 449.15 118.88 443.42 127.33 435.97 117.55 418.93 78.58 414.93 76.21 392.71 77.33 388.86 80.51 388.86 178.15"/><path class="cls-1" d="M376,113l-3.26-2.1-12.41-1.78-5.52.59-4,1.19-9.86-3.31-11.06-1.14-10,2.52-7,3-8.22,9-6.13,14.8v18.09l13.9,23.49,20.77,6,16.88-6,13.15,4.36,12.55-2.52.28-1.56Zm-38.38,43.67A11.86,11.86,0,1,1,349,144.77,11.61,11.61,0,0,1,337.63,156.62Z"/><path class="cls-1" d="M292.79,156.33H282.34l-6.22-4.12L276,135.45l17.63-5.31-2.37-19.41-13.84-1L274,89.25,253.6,85.4l-4.74,2.37-2.67,21.78-3.85,4.74-5.93.15-5.92-3.86-12.3-1.77-5.48.59-4,1.18-9.78-3.31-11-1.13L178,108.66l-7,3-8.15,9-6.07,14.79v18.1L170.64,177l20.59,6L208,177l13,4.36,12.43-2.52,1.64-9.18-.74-34.89,5.78-2.87,7.85,4.87,1,8.31-.74,17.61,2.81,10.82,6.67,4.61s8,2.35,8.44,2.5,12.45,0,12.45,0L288.86,177l6.24-5.72V160.81Zm-97.12,0c-6.21,0-11.26-5.3-11.26-11.85s5.05-11.85,11.26-11.85,11.26,5.3,11.26,11.85S201.89,156.36,195.67,156.36Z"/><path class="cls-1" d="M725.75,113.08l-3.28-2.1L710,109.2l-5.56.59L700.38,111l-9.91-3.31-11.12-1.14-10.06,2.52-7.07,3-8.26,9-6.16,14.8v18.09l14,23.49,20.89,6,17-6,13.22,4.36,12.62-2.52.28-1.56Zm-38.59,43.68a11.86,11.86,0,1,1,11.42-11.86A11.64,11.64,0,0,1,687.16,156.76Z"/><path class="cls-1" d="M642.11,156.46H631.66l-6.22-4.12-.15-16.76,17.63-5.31-2.37-19.41-13.84-1-3.35-20.45-20.44-3.85-4.74,2.37-2.67,21.78-3.85,4.74-5.93.15-5.92-3.85-12.3-1.78-5.48.59-4,1.19-9.78-3.31-11-1.14-9.93,2.52-7,3-8.15,9-6.07,14.79v18.1L520,177.17l20.59,6,16.74-6,13,4.36L582.76,179l1.64-9.18-.74-34.89,5.78-2.87,7.85,4.87,1,8.31-.74,17.61,2.81,10.82,6.67,4.61s8,2.35,8.44,2.5,12.45,0,12.45,0l10.22-3.62,6.23-5.71V160.94Zm-97.12,0c-6.21,0-11.26-5.3-11.26-11.85s5-11.85,11.26-11.85,11.26,5.31,11.26,11.85S551.21,156.49,545,156.49Z"/><path class="cls-1" d="M100.34,118.21v12.67s-.22,20.44,0,21.78,0,24.38,0,24.38l28.45,2.73,3.11-3.36V103.32l21.57-3.11V76.8l-4.24-1.25-31.56,2.22-22-1H81L77,97.32l4.22,7.12,13.11-1.56,5.56,5.78Z"/><path d="M586.75,150.35c-.79,6.8,1.14,14.52,1,22.33-.2,8.57-3.25,11.54-11.76,11.9-6.62.29-13.27,1.59-19.35-2.43-1.31-.86-2.93-.43-4.28.4-14.93,9.18-35.4.84-44.27-15.67-9-16.69-5.77-39.73,7.65-52.5,9.87-9.39,26.08-12.13,38.53-6.43,2.17,1,4.11,1.69,6.63.78,8.64-3.11,16.77-.32,24.4,3.32,4.74,2.25,10,.2,10.37-5.37.29-3.8,0-7.64.13-11.45.24-8.52,3.43-11.38,11.76-10.46,4.63.52,9.24,1.22,13.84,1.94,4.81.74,7.32,3.57,7.34,8.48,0,.17,0,.34,0,.5.32,3.78-1.4,8.11.87,11.21,2.56,3.52,7.15,1.09,10.81,1.64,4.84.71,5.81,4.2,6.3,8.22.36,2.87-1.46,7.4,1.22,8.23,2.93.91,3.55-3.94,5.29-6.14,10.13-12.88,28.24-17.54,43.08-10.76a9.1,9.1,0,0,0,7.1.35c8.28-2.57,16.13,0,23.52,3.48,2.94,1.37,3.68,5,3.23,8.34a195.83,195.83,0,0,0-.7,46.16,52.75,52.75,0,0,1,.1,5.48c-.07,9.52-2.95,12.22-12.48,12.72-6.5.35-12.91,1.26-18.84-2.53-1.33-.85-2.86-.1-4.27.55-15.22,6.88-31,2.74-40.62-10.53-1-1.36-1.45-3.93-3.71-3.4-1.77.42-1.61,2.71-2,4.25a11.91,11.91,0,0,1-7,8c-9.68,4.16-19.65,6.17-30.11,3-9-2.75-14.06-8.72-14.58-18.06-.37-6.61-.59-13.26.42-19.88a10.53,10.53,0,0,0-6.82-11.87c-2.4-1-2.41.79-2.7,2.26a5.43,5.43,0,0,0-.06,1ZM571.18,176.4v-.11c1.33,0,2.67,0,4,0,7.33-.13,7.68-.53,7.1-7.65-1.39-17.37-2.29-34.75.71-52.06.45-2.61-.48-3.82-2.76-4.29-4.56-.94-9.14-1.73-13.69-2.68-2-.43-3.13.34-3.79,2.2-1.18,3.31-3.15,3.57-5.56,1.19-10.67-10.51-34.4-5.69-42.59,7.49-5.63,9.07-6.57,18.72-5.48,28.73,1.28,11.81,7.13,21.13,18.1,26.22,9.91,4.61,19.38,3.46,27.59-4.42,2.21-2.12,4.47-1.81,5.12,1.43.69,3.45,2.78,4.13,5.77,4C567.52,176.32,569.35,176.4,571.18,176.4Zm141.61,0v-.16c2.33,0,4.66-.08,7,0,3.13.12,4.72-1.15,4.45-4.4-.12-1.49-.15-3-.25-4.47-1-13.73-1.54-27.46-.6-41.24.29-4.39,3.92-9.65.07-13-3.29-2.85-8.77-2.57-13.37-3.27a14.52,14.52,0,0,1-1.47-.24c-1.89-.5-3.24-.07-3.92,1.93-1.24,3.61-3.26,3.73-5.87,1.24-10.72-10.21-33.71-5.45-41.95,7-6.43,9.74-7.39,20.32-5.71,31.07,3.81,24.34,30.76,35.59,45.33,20.21,2.29-2.41,4.63-2,5.36,1.54.66,3.21,2.68,3.83,5.46,3.71C709.13,176.34,711,176.4,712.79,176.4Zm-89.44-34.27c0-11.8,0-11.8,10.9-11.77,7.11,0,7.11,0,7.11-7,0-12,0-12-12.17-12.27-5-.12-6.54-1.76-6.31-6.69.18-3.64.37-7.28.63-10.92.2-2.79-.72-4.24-3.81-4.5a116.68,116.68,0,0,1-13.3-1.91c-4-.79-5.35.43-5.44,4.5-.13,5.64,1.19,11.23.25,16.88-.39,2.34-1.12,4.21-3.74,4.55-2.07.27-3.67,1.12-3.42,3.4.45,4.17-1.43,8.56,1.13,12.51.21.31.91.38,1.39.42,4.67.37,5.55,3.48,5.4,7.36-.3,8.12-.8,16.23-.84,24.35,0,9.29,4.33,13.83,13.45,15.48,5.91,1.07,11.61.39,17.26-1,9.89-2.41,11.43-4.63,11.54-14.72,0-3.11-1-4.12-4.15-3.69-13.26,1.82-15.81-.4-15.88-13.49Zm13.28-3.44c-8.1.33-8.24.47-7.93,9.23.19,5.42,2.1,7.6,6.47,7.38,9.4-.47,9.76-1.27,9.63-12.64C644.72,136.36,640.73,138.66,636.63,138.69Z"/><path d="M237.19,150.77c-.79,6.83,1.1,14.21.93,21.69-.2,8.86-3.18,11.71-12.06,12.14-6.64.32-13.26,1.4-19.34-2.53a3.58,3.58,0,0,0-3.81.39c-15.56,9.69-35.41-.57-43.1-13.26-10.36-17.07-7.89-41.52,6.52-55,9.76-9.16,26-11.91,38.13-6.26,2.76,1.28,5,1.18,8,.33,7.9-2.22,15.52.28,22.69,3.38,5.26,2.28,9.61.35,9.93-5.43.2-3.81,0-7.64.1-11.46.31-7.92,3.54-10.81,11.26-10,4.8.51,9.57,1.24,14.34,2s7.31,3.58,7.33,8.5c0,.17,0,.33,0,.5.33,3.77-1.4,8.11.88,11.21,2.57,3.49,7.16,1.13,10.82,1.6,4.39.57,5.72,3.65,6.16,7.27.34,2.79,0,5.64.15,8.46,0,1.24-.43,3,1.31,3.32,1.36.26,1.72-1.31,2.33-2.26a85.89,85.89,0,0,1,4.86-7.5c10.15-12.63,30.72-16.64,42.51-9.57,1.6,1,3.35,1.55,5.22.72,8.28-3.66,16-.27,23.68,2.14,3.65,1.16,5,4.89,4.52,8.63a212,212,0,0,0-.68,48.17,37.21,37.21,0,0,1-.09,7.46c-.61,5.92-3.81,8.93-9.81,9.12-7.21.23-14.6,2.11-21.35-2.38-1.48-1-3.19-.07-4.7.78-14.76,8.36-32.2.05-39.59-10-.69-.93-1.3-1.93-2-2.87s-1.35-2.67-2.85-2.5c-1.91.23-1.8,2.23-2,3.58-1.07,5.92-4.89,9.32-10.27,11.11-8.79,2.94-17.68,4.65-26.92,1.84s-14.64-9-15-18.79c-.26-6.62-.67-13.29.59-19.88.84-4.39-.94-7.34-4.75-9.41-2.6-1.41-3.82-.53-3.9,2.16C237.11,142.13,237.19,146.12,237.19,150.77ZM221.48,176.4c11.79-.18,11.46-.16,10.79-11.6-1-15.88-1.84-31.82,1-47.62.53-3-.14-4.45-3-5-4.4-.84-8.82-1.64-13.21-2.55-2-.41-3.18.14-3.85,2.07-1.32,3.77-3.41,3.42-5.91,1.07-10.63-10-33-5.44-41.35,6.4-7,9.86-8,20.79-6.2,31.91,3.88,24.4,31.06,35.51,45.41,20,2.33-2.52,4.59-1.74,5.3,1.71.59,2.9,2.38,3.7,5,3.6C217.48,176.34,219.48,176.4,221.48,176.4Zm142,0v-.11c1.33,0,2.67,0,4,0,7.28-.13,7.63-.55,7-7.7-1.4-17.37-2.3-34.75.72-52.06.46-2.64-.57-3.78-2.82-4.25-4.55-1-9.14-1.73-13.69-2.68-2.06-.43-3.1.43-3.76,2.25-1.22,3.37-3.21,3.44-5.58,1.12-10.7-10.47-34.38-5.67-42.57,7.56-5.52,8.91-6.46,18.38-5.51,28.24,1.14,11.87,6.91,21.21,17.75,26.48,10,4.86,19.65,3.76,28-4.26,2.24-2.15,4.47-1.7,5.09,1.51.69,3.48,2.85,4.07,5.81,3.92C359.81,176.33,361.64,176.4,363.47,176.4Zm-90.71-34.29c0-11.78,0-11.78,10.92-11.75,7.09,0,7.09,0,7.08-7,0-12,0-12-12.19-12.25-4.95-.12-6.52-1.78-6.28-6.71.18-3.8.4-7.61.62-11.41.13-2.36-.74-3.65-3.33-3.92-4.78-.51-9.56-1.16-14.29-2-3.53-.65-5,.53-4.85,4.08.2,5.29.36,10.59.32,15.89,0,3.16-.85,6-4.88,6.24-1.79.13-2.46,1.51-2.47,3.19,0,3.32,0,6.64,0,10,0,1.74.73,2.84,2.59,3,4.68.35,5.53,3.49,5.39,7.36-.31,8.12-.8,16.23-.85,24.35-.05,9.28,4.34,13.81,13.48,15.46a40.9,40.9,0,0,0,17.25-1c9.89-2.41,11.42-4.63,11.53-14.73,0-3.14-1.08-4.09-4.18-3.66-13.23,1.84-15.79-.4-15.85-13.53Zm22.33,3.27h0c0-1.82.06-3.64,0-5.46,0-1.19-.47-2.78-1.89-2.31-4,1.31-8.24.72-12.31,1.38-1.47.23-2.15,1.36-2.55,2.73-2.8,9.64,1.06,14.16,11,12.85a14.76,14.76,0,0,1,2-.2c2.71,0,3.92-1.37,3.85-4C295.05,148.7,295.09,147,295.09,145.38Z"/><path d="M421.89,156.27c0,6.11.06,11.21,0,16.31-.13,8.66-3.17,11.74-11.74,11.9-4.66.09-9.32.12-14,0-7.59-.21-10.21-2.81-10.19-10.34.08-20.91,1.57-41.79,1-62.71-.22-8.29-1.4-16.52-1.06-24.85.32-7.74,2.69-10.36,10.52-10.78,5.15-.27,10.29-.6,15.44-.84s8.85,2.11,11,6.89q8.67,19,17.45,38c.67,1.45.84,3.63,2.85,3.7s2.33-2.13,3-3.53c5.79-11.78,11.59-23.55,17.2-35.41,2.86-6.07,7.13-9.23,14.09-8.77,4.63.31,9.31,0,14,0,6.36-.08,9.08,2.53,9.34,8.9.63,15-1.24,29.84-1,44.78.26,14.59.75,29.18,1,43.77.13,8.73-2.43,11.14-11.31,11.25-5.16.07-10.32.11-15.47,0-6.79-.19-10.07-3.53-10.17-10.2-.07-4.65,0-9.3,0-13.95,0-1.25.48-3.08-1.11-3.47s-1.87,1.53-2.35,2.65c-2.65,6.27-5.31,12.54-7.81,18.87-1.59,4-4,6.83-8.66,7.08-4.78.26-8-2.32-10-6.19-2.8-5.46-5.06-11.19-7.64-16.76C425.38,160.58,424.89,158.39,421.89,156.27Zm-6.25-2.7c0-7.13-.06-12.61,0-18.09,0-1.84-.78-4.5,1.92-5,2.32-.41,2.67,2.15,3.36,3.71,5.57,12.61,11,25.27,16.58,37.89,1.11,2.52,1.9,5.41,5.73,5.21,3.58-.17,4.06-3,5.05-5.37,5.54-13.16,11-26.37,16.53-39.53.68-1.62,1.44-3.94,3.69-3.29,1.79.51,1.5,2.73,1.55,4.38,0,1.32,0,2.65,0,4-.32,11.28-.56,22.57-1,33.85-.14,3.66,1.14,5.08,4.88,4.92a154.67,154.67,0,0,1,16,0c4.33.25,5.82-1.16,5.73-5.62-.27-14.44-1.56-28.85-1.16-43.3.41-14.77.61-29.55,1.11-44.31.15-4.14-1.56-5.45-5.32-4.76-4.46.82-9,1.25-13.41.32-4.79-1-6.85,1-8.72,5-6.62,14.32-13.52,28.52-20.4,42.71-1,2-1.56,4.85-4.51,4.68-2.7-.17-3.45-2.83-4.59-4.8a29.08,29.08,0,0,1-1.22-2.73c-6.32-13.92-12.7-27.8-18.9-41.76-1.5-3.37-3.43-4.8-7.31-4.22a105.12,105.12,0,0,1-12.94.69c-7.35.18-7.53.32-6.88,7.69,1.34,15.07.94,30.19.92,45.29,0,13.44-.66,26.88-1.13,40.31-.11,3.28.79,4.95,4.45,4.81,5.49-.21,11-.18,16.48,0,3.67.11,4.56-1.62,4.35-4.91C416.05,164.87,415.86,158.4,415.64,153.57Z"/><path d="M115.85,184.54c-3,0-6,.07-9,0-6.79-.21-10-3.31-10.48-10.08-.41-5.5.81-10.94.77-16.38-.11-15.08,1.35-30.14.26-45.23-.32-4.48-1.54-6.66-6.32-5.37a11.34,11.34,0,0,1-2.48.24c-13,.65-15.54-2.15-13.61-14.88.53-3.45.78-6.94,1.41-10.36.84-4.52,4.13-7.46,8.11-7.06a255.41,255.41,0,0,0,58.75-.67,40,40,0,0,1,5.48-.21c4.68,0,7.12,2.19,7.4,6.84.32,5.46.13,10.93.66,16.41.45,4.61-3.06,8.27-7.75,8.81a37.27,37.27,0,0,1-8,.14c-5.18-.55-7.46,1.92-7.6,6.75-.26,8.63-.33,17.24.14,25.88.62,11.42,1.21,22.86,1.12,34.29-.06,8.44-3,10.78-11.42,10.9C120.85,184.58,118.35,184.55,115.85,184.54Zm-13.56-25c0,2.59.22,6.75-.06,10.89s1.08,6.27,5.57,5.91c2.64-.22,5.32,0,8,0,13.42,0,13.57,0,13.21-13.53-.5-19.25-1.34-38.49-.94-57.76.1-4.79,1.51-7.09,6.67-6.71,4.47.34,9,0,13.48.08,2.45,0,3.82-.65,3.25-3.5A53.3,53.3,0,0,1,151,81.56c.22-3.9-.77-5.18-5-4.64-18.68,2.39-37.41,3.28-56.23,1.33-7.41-.76-7.5-.56-8.52,7.72-.52,4.25-3.75,9.59-1.46,12.38,2.72,3.32,8.42.2,12.83.18,10.35,0,10.3-.23,10.71,10.68C103.94,125.49,103,141.74,102.29,159.57Z"/><path d="M545.52,126.38c9,.07,15.54,6.85,15.35,16s-6.57,15.53-15.35,15.52A15.78,15.78,0,0,1,529.89,142C530,132.61,536.26,126.31,545.52,126.38Zm9.25,18.74c0-6.21-3.7-10.17-9.62-10.3-5.39-.13-9.36,4.12-9.33,10,0,6.49,3.94,10.65,9.94,10.61C551.12,155.39,554.78,151.2,554.77,145.12Z"/><path d="M687.18,126.38c9.1,0,15.59,6.63,15.53,15.83-.06,9-6.43,15.65-15.17,15.71a15.78,15.78,0,0,1-15.82-15.74C671.64,132.83,678,126.37,687.18,126.38Zm9.43,18.74c0-6.2-3.69-10.16-9.61-10.31-5.39-.13-9.37,4.12-9.34,10,0,6.49,3.92,10.65,9.93,10.62C693,155.39,696.61,151.21,696.61,145.12Z"/><path d="M196,157.93A15.8,15.8,0,0,1,180.29,142c0-9.38,6.34-15.71,15.6-15.65,9.05.06,15.55,6.81,15.38,16S204.73,157.92,196,157.93Zm9.22-12.56c.07-6.46-3.76-10.56-9.87-10.56-5.19,0-9,4.12-9.08,9.74-.07,6.54,3.68,10.75,9.68,10.87C201.27,155.53,205.1,151.37,205.18,145.37Z"/><path d="M337.87,126.38c9,.11,15.5,7,15.23,16.12s-6.65,15.47-15.44,15.42a15.8,15.8,0,0,1-15.53-16C322.28,132.49,328.58,126.28,337.87,126.38Zm9.14,18.8c0-6.41-3.94-10.49-10.05-10.37-5.17.1-8.9,4.27-8.9,9.93,0,6.5,3.87,10.68,9.87,10.68C343.29,155.43,347,151.25,347,145.18Z"/><path class="cls-2" d="M794.32,61.3c-.34,2-1.9,3.12-3.16,4.41-9.54,9.75-9.48,9.67-19.21.19-3.51-3.42-6.38-9.46-10.92-9.39-4.2.07-7.09,5.93-10.5,9.28-9.32,9.13-9.1,9-18.5.13-3.65-3.46-3.95-5.64,0-9,4.53-3.87,8.45-8.45,12.8-12.55,2.2-2.08,2.23-3.6,0-5.7-4.82-4.57-9.36-9.44-14.18-14-2.3-2.18-2.62-3.85-.1-6.08a85.78,85.78,0,0,0,7.75-7.74c2.55-2.91,4.49-2.39,6.92.18,4.32,4.6,9,8.88,13.33,13.44,2.22,2.33,3.94,2.37,6.18,0,4.48-4.68,9.22-9.1,13.7-13.78,2.19-2.29,4-2.53,6.18-.09,2.46,2.69,5.08,5.26,7.75,7.75,2.24,2.08,2,3.78-.14,5.81-4.67,4.49-9.09,9.23-13.81,13.66-2.56,2.41-2.45,4.17.05,6.52,4.72,4.44,9.21,9.11,13.78,13.7C793.17,59,794.16,59.91,794.32,61.3Z"/><path class="cls-2" d="M28.53,61c0-13.89,0-13.89-14-13.89-.5,0-1,0-1.5,0C9.14,46.65,3.85,49,1.64,45.79c-2.92-4.16-1.07-10-1-15C.74,28,3.1,28,5.14,28c6,0,12-.2,18,0,4.19.16,5.61-1.55,5.47-5.58-.21-5.8.05-11.62-.07-17.43-.08-3.6,1.37-5.06,5-5C51.14.35,48.2-2.4,48.39,14.06c.16,13.88,0,13.88,14,13.88a17.36,17.36,0,0,1,2.5,0c3.66.53,8.84-2,10.7,1.59,2.32,4.43,1,10.08.57,15.18C76,47.16,73.67,47,71.86,47c-6.16.05-12.32.16-18.47,0-3.67-.09-5.08,1.4-5,5,.15,6-.07,12,.06,17.93.08,3.58-1.33,5.33-5,5-.17,0-.34,0-.5,0C26,74.7,28.83,77.37,28.53,61Z"/><path class="cls-2" d="M40.66,220.49c-9.81,0-19.62-.14-29.43.06-4.16.08-6.05-1.13-5.95-5.62.36-16-1.91-13.4,13.4-13.53,17.12-.14,34.26.09,51.38-.11,4.61-.06,6.59,1.19,6.46,6.14-.4,15.25,1.72,12.86-12.91,13C56,220.57,48.31,220.49,40.66,220.49Z"/><path class="cls-2" d="M761.51,218.5c-9,0-18-.09-26.91,0-3.58.05-5.09-1.26-5.06-4.93.12-13-.85-11.16,10.64-11.23,15.62-.08,31.24.15,46.85-.11,5-.08,6.78,1.38,6.65,6.48-.24,9.75,0,9.76-9.75,9.76Z"/><path class="cls-2" d="M761.43,194.59c-8.88,0-8.88,0-8.87-9.47,0-8.68,0-8.68,9.66-8.67,8.42,0,8.42,0,8.41,10C770.62,194.59,770.62,194.59,761.43,194.59Z"/><path class="cls-2" d="M761.24,244.41c-8.69,0-8.69,0-8.68-9.65,0-8.48,0-8.48,9.85-8.48,8.23,0,8.23,0,8.21,10.15C770.61,244.41,770.61,244.41,761.24,244.41Z"/><path d="M545.49,126.38c9.08,0,15.58,6.69,15.48,15.89-.09,9-6.47,15.61-15.22,15.65A15.78,15.78,0,0,1,530,142.13C530,132.77,536.26,126.36,545.49,126.38Zm9.38,18.71c0-6.2-3.73-10.15-9.65-10.28-5.38-.11-9.34,4.16-9.3,10,.05,6.48,4,10.64,10,10.58C551.24,155.37,554.89,151.17,554.87,145.09Z"/><path d="M687.57,157.92a15.78,15.78,0,0,1-15.75-15.8c0-9.37,6.29-15.77,15.52-15.74,9.08,0,15.57,6.71,15.47,15.9S696.33,157.89,687.57,157.92Zm9.14-12.66c0-6.43-3.87-10.52-10-10.45-5.18.07-9,4.21-9,9.86,0,6.53,3.78,10.7,9.8,10.75C692.92,155.47,696.67,151.3,696.71,145.26Z"/><path d="M196,126.38c9,.06,15.54,6.83,15.37,16s-6.55,15.55-15.32,15.56A15.8,15.8,0,0,1,180.39,142C180.44,132.64,186.74,126.32,196,126.38Zm9.27,19.17c.15-6.5-3.57-10.63-9.67-10.74-5.21-.09-9.14,4-9.27,9.56-.16,6.57,3.49,10.81,9.5,11C201.21,155.64,205.14,151.52,205.27,145.55Z"/><path d="M337.69,126.38c9.09,0,15.58,6.63,15.52,15.84-.06,9-6.43,15.64-15.17,15.7a15.78,15.78,0,0,1-15.82-15.74C322.15,132.83,328.47,126.37,337.69,126.38Zm9.42,18.91c.05-6.44-3.83-10.53-9.94-10.48-5.19.05-9,4.19-9,9.83,0,6.53,3.76,10.71,9.77,10.78C343.29,155.49,347.07,151.32,347.11,145.29Z"/></g></g></svg>