<?xml version="1.0" encoding="UTF-8"?>
<svg version="1.1" xmlns="http://www.w3.org/2000/svg" width="327" height="280">
<path d="M0 0 C51.15 0 102.3 0 155 0 C155 22.77 155 45.54 155 69 C140.48 69 125.96 69 111 69 C111.01571045 75.18387451 111.0314209 81.36774902 111.04760742 87.73901367 C111.09724217 108.13498747 111.13057717 128.53096359 111.15543652 148.92698193 C111.17091399 161.29713707 111.19202038 173.66723506 111.22631836 186.03735352 C111.2561937 196.8175033 111.27556859 207.59761169 111.28226548 218.37780172 C111.28618089 224.0873151 111.29540103 229.79671006 111.31719017 235.50618553 C111.33752578 240.87822311 111.34383969 246.25009327 111.33932304 251.62216568 C111.34014955 253.59545742 111.34613253 255.56875467 111.35761642 257.54201317 C111.3725147 260.23359368 111.36896333 262.92453984 111.36076355 265.61613464 C111.36950207 266.39921484 111.3782406 267.18229503 111.38724393 267.98910493 C111.34638745 272.94163573 110.5691847 276.4308153 107 280 C105.21111813 280.10945858 103.41791949 280.14908939 101.62573242 280.16113281 C100.47751511 280.17074036 99.32929779 280.1803479 98.14628601 280.19024658 C96.89531631 280.19449646 95.64434662 280.19874634 94.35546875 280.203125 C93.07899979 280.20882507 91.80253082 280.21452515 90.48738098 280.22039795 C87.77955556 280.22986656 85.07184148 280.23675355 82.36401367 280.24023438 C78.89700198 280.24571197 75.43038446 280.26971941 71.96349621 280.29820633 C68.65666111 280.32133581 65.34988058 280.32328312 62.04296875 280.328125 C60.79807175 280.3404718 59.55317474 280.3528186 58.27055359 280.36553955 C57.11287979 280.36253845 55.95520599 280.35953735 54.76245117 280.35644531 C53.74398605 280.36009094 52.72552094 280.36373657 51.67619324 280.36749268 C48.39181611 279.91648468 47.27019649 279.42900305 45 277 C44.60827897 274.12088986 44.47706105 271.62318383 44.51898193 268.74275208 C44.51556423 267.89080991 44.51214653 267.03886774 44.50862527 266.16110915 C44.50201685 263.2956258 44.52407108 260.43107141 44.54589844 257.56567383 C44.54702628 255.51599652 44.5463943 253.4663176 44.54412842 251.41664124 C44.54297786 245.84247579 44.56654253 240.26865265 44.59442425 234.69456697 C44.619381 228.87294884 44.62177538 223.0513234 44.62652588 217.22966003 C44.63897251 206.2011518 44.67181698 195.17280164 44.71192384 184.14436311 C44.75658905 171.59074571 44.77861538 159.03712089 44.79870558 146.48344386 C44.84054813 120.65552134 44.91392163 94.82781559 45 69 C30.15 69 15.3 69 0 69 C0 46.23 0 23.46 0 0 Z " fill="#FFFFFF" transform="translate(86,0)"/>
<path d="M0 0 C0.99530228 -0.00021904 0.99530228 -0.00021904 2.01071167 -0.0004425 C4.20753225 0.00025508 6.40426842 0.00804025 8.60107422 0.01586914 C10.12279209 0.01773387 11.64451056 0.01915751 13.16622925 0.02015686 C17.17427219 0.02397773 21.18227898 0.03380435 25.19030762 0.04486084 C29.27904776 0.05508421 33.36779373 0.05965647 37.45654297 0.06469727 C45.48129915 0.07542699 53.50602594 0.09249826 61.53076172 0.11352539 C61.57651517 35.0788072 61.61176872 70.04408297 61.63289238 105.0093884 C61.63539386 109.13508385 61.6379825 113.26077925 61.640625 117.38647461 C61.64114962 118.20784443 61.64167424 119.02921425 61.64221476 119.87547407 C61.65092314 133.18412567 61.6666955 146.49276004 61.68506731 159.80140141 C61.70375432 173.45196944 61.7148759 187.10252844 61.71893871 200.75310874 C61.72168626 209.17979565 61.73037177 217.60643384 61.74659465 226.03310576 C61.75714674 231.8074801 61.76036638 237.58182918 61.75776447 243.35621247 C61.7564804 246.69034918 61.75956715 250.0243317 61.76917267 253.35846519 C61.77907003 256.96986033 61.77674959 260.58104419 61.77127075 264.19244385 C61.77709643 265.25080326 61.78292212 266.30916268 61.78892434 267.39959359 C61.78494224 268.36549157 61.78096014 269.33138955 61.77685738 270.32655716 C61.77799654 271.57735593 61.77799654 271.57735593 61.77915871 272.85342336 C61.50227938 275.37267909 60.87663255 276.97477912 59.53076172 279.11352539 C56.77995797 280.48892727 54.55508728 280.25594656 51.47631836 280.2746582 C49.56907738 280.28906952 49.56907738 280.28906952 47.62330627 280.30377197 C46.22917866 280.30861921 44.83504896 280.31289822 43.44091797 280.31665039 C42.01606748 280.32240137 40.59121701 280.32815911 39.16636658 280.33392334 C36.17788329 280.34443238 33.1894269 280.35027588 30.20092773 280.35375977 C26.36953748 280.35924872 22.53850186 280.38328526 18.70722294 280.41173172 C15.76385962 280.43034374 12.82058204 280.43556289 9.87716484 280.43709564 C8.46454361 280.44012526 7.05192401 280.44816423 5.63936043 280.46128082 C3.66451147 280.47831167 1.68951653 280.47462056 -0.28540039 280.4699707 C-1.40965927 280.47361633 -2.53391815 280.47726196 -3.69224548 280.48101807 C-6.46923828 280.11352539 -6.46923828 280.11352539 -8.29322815 278.77874756 C-10.40899771 275.78283258 -10.59479144 273.11717803 -10.59787273 269.57289314 C-10.6027094 268.16823364 -10.6027094 268.16823364 -10.60764378 266.73519719 C-10.60609518 265.70457217 -10.60454658 264.67394715 -10.60295105 263.61209106 C-10.60521661 262.51866359 -10.60748216 261.42523611 -10.60981637 260.29867446 C-10.61617238 256.61601653 -10.61532598 252.93339525 -10.61450195 249.25073242 C-10.61749244 246.6180415 -10.62089471 243.98535103 -10.62467957 241.35266113 C-10.63299265 234.93246299 -10.6357347 228.51227403 -10.63629194 222.09207095 C-10.6367668 216.87431545 -10.63882002 211.65656298 -10.64199257 206.43880844 C-10.65080099 191.65140205 -10.65541166 176.86400292 -10.6546621 162.07659389 C-10.65462214 161.2790889 -10.65458218 160.48158392 -10.65454102 159.65991211 C-10.65450013 158.86143541 -10.65445925 158.06295871 -10.65441713 157.24028574 C-10.65401063 144.29785583 -10.66358088 131.355455 -10.67767938 118.4130335 C-10.69203537 105.12961654 -10.69894999 91.84621377 -10.69808561 78.56278884 C-10.69775336 71.10284248 -10.70051235 63.6429266 -10.71126366 56.18298721 C-10.72035845 49.83164081 -10.72255234 43.48033872 -10.71575423 37.12898864 C-10.71248382 33.88788603 -10.7135329 30.64688638 -10.72110748 27.40578842 C-10.72878587 23.89342452 -10.72421007 20.3812858 -10.71647644 16.868927 C-10.72162 15.84276343 -10.72676357 14.81659985 -10.732063 13.75934041 C-10.68877114 4.89484576 -10.68877114 4.89484576 -8.46923828 1.11352539 C-5.61353129 -0.31432811 -3.19209472 -0.00588947 0 0 Z " fill="#FFFFFF" transform="translate(10.46923828125,-0.113525390625)"/>
<path d="M0 0 C4.51656908 -0.07490483 9.03279623 -0.12895323 13.54980469 -0.16479492 C15.08209543 -0.17975744 16.61434429 -0.20013497 18.14648438 -0.22631836 C33.30547277 -0.47863834 45.89518145 1.8029126 57.5859375 12.328125 C68.58431496 23.94767328 72.15596889 36.89800513 72.14044189 52.57778931 C72.14341302 53.52354305 72.14638414 54.46929679 72.1494453 55.44370973 C72.15809491 58.60261893 72.15963734 61.76149007 72.16113281 64.92041016 C72.1657634 67.18916403 72.17078838 69.45791712 72.17617798 71.72666931 C72.18927529 77.88135262 72.19574099 84.03602503 72.20018864 90.19072008 C72.20312188 94.03497876 72.20722703 97.87923448 72.21169281 101.72349167 C72.22379289 112.37293979 72.23417948 123.0223843 72.2375679 133.67183876 C72.23789725 134.69261058 72.23789725 134.69261058 72.23823325 135.73400404 C72.23856067 136.75715253 72.23856067 136.75715253 72.2388947 137.80097067 C72.23933816 139.18306899 72.23978473 140.56516731 72.24023438 141.94726562 C72.2404558 142.63282757 72.24067723 143.31838952 72.24090537 144.02472608 C72.24485802 155.14659219 72.26233064 166.26839298 72.2855939 177.39023383 C72.30929985 188.81604158 72.32151119 200.2418018 72.32293582 211.66763723 C72.3239853 218.08014601 72.32992426 224.49256242 72.34775543 230.90504837 C72.36418835 236.93134217 72.3664149 242.95747365 72.35761642 248.98378181 C72.35684365 251.19734569 72.36122017 253.41091814 72.37107468 255.62446022 C72.38372254 258.64189476 72.37795644 261.65874803 72.36749268 264.67617798 C72.37957728 265.995383 72.37957728 265.995383 72.39190602 267.34123862 C72.34991913 272.50404562 71.8346223 276.1653777 68 280 C66.02201152 280.10981004 64.04007983 280.14911678 62.05908203 280.16113281 C60.78751251 280.17074036 59.51594299 280.1803479 58.20584106 280.19024658 C56.80650002 280.19509418 55.40715691 280.1993731 54.0078125 280.203125 C52.58153276 280.20887422 51.15525306 280.21463198 49.72897339 280.22039795 C46.73451374 280.2309173 43.74008101 280.2367537 40.74560547 280.24023438 C36.90633942 280.24571846 33.06742816 280.26974028 29.22827339 280.29820633 C26.28061888 280.31682091 23.33304997 280.32203768 20.38534164 280.32357025 C18.96992937 280.32660046 17.55451873 280.3346414 16.13916397 280.34775543 C14.15941614 280.36478793 12.17952267 280.36109493 10.19970703 280.35644531 C9.07243195 280.36009094 7.94515686 280.36373657 6.78372192 280.36749268 C4 280 4 280 2.17501831 278.66522217 C0.03519286 275.63268663 -0.12468584 272.9373097 -0.12304783 269.35169697 C-0.1260344 267.91106167 -0.1260344 267.91106167 -0.12908131 266.44132262 C-0.12616847 265.38394132 -0.12325563 264.32656001 -0.12025452 263.23713684 C-0.12110894 262.11568022 -0.12196337 260.9942236 -0.12284368 259.83878344 C-0.12449758 256.061533 -0.11897854 252.28432646 -0.11352539 248.50708008 C-0.11268739 245.80716422 -0.11335725 243.10724924 -0.1139679 240.40733337 C-0.11449274 234.58459324 -0.11135008 228.76186429 -0.10573006 222.93912697 C-0.09760969 214.5203837 -0.09499928 206.10164584 -0.09374207 197.68289908 C-0.09155239 184.0246803 -0.0848946 170.36646749 -0.07543945 156.70825195 C-0.06626315 143.43904653 -0.05918338 130.16984272 -0.05493164 116.90063477 C-0.05453756 115.67416184 -0.05453756 115.67416184 -0.05413551 114.42291168 C-0.05283049 110.32108807 -0.05156678 106.21926445 -0.05032361 102.11744082 C-0.03995363 68.07828955 -0.02233761 34.03914551 0 0 Z " fill="#FFFFFF" transform="translate(255,0)"/>
</svg>
