<svg xmlns="http://www.w3.org/2000/svg" width="327" height="280"><path fill="#fff" d="M86 0h155v69h-44l.048 18.739c.05 20.396.083 40.792.107 61.188q.022 18.555.071 37.11.046 16.17.056 32.34.004 8.565.035 17.13.03 8.057.022 16.115.001 2.96.019 5.92c.015 2.692.011 5.383.003 8.074l.026 2.373c-.04 4.953-.818 8.442-4.387 12.011-1.789.11-3.582.15-5.374.161l-3.48.03-3.79.012-3.869.017q-4.06.015-8.123.02c-3.467.006-6.934.03-10.4.058-3.307.023-6.614.025-9.921.03l-3.772.038-3.509-.01-3.086.011c-3.284-.45-4.406-.938-6.676-3.367-.392-2.88-.523-5.377-.481-8.257l-.01-2.582c-.007-2.865.015-5.73.037-8.595q.001-3.075-.002-6.15c-.001-5.574.023-11.147.05-16.721.025-5.822.028-11.644.033-17.465.012-11.029.045-22.057.085-33.086.045-12.553.067-25.107.087-37.66.042-25.828.115-51.656.201-77.484H86zM10.47-.114h2.01c2.197 0 4.394.009 6.59.016l4.565.005q6.013.006 12.025.024 6.132.014 12.266.02Q59.964-.033 72 0a148914 148914 0 0 1 .111 119.762q.016 19.963.043 39.926.028 20.475.034 40.952.004 12.64.028 25.28.015 8.66.011 17.323-.002 5.001.011 10.002c.01 3.611.008 7.223.003 10.834l.017 3.207-.012 2.927.002 2.527c-.276 2.52-.902 4.121-2.248 6.26-2.75 1.375-4.976 1.142-8.054 1.161l-3.853.03-4.183.012-4.274.017q-4.483.015-8.966.02c-3.831.006-7.662.03-11.494.058-2.943.019-5.886.024-8.83.026q-2.118.004-4.237.024c-1.975.017-3.95.013-5.925.008l-3.407.011C4 280 4 280 2.176 278.665.06 275.67-.126 273.004-.129 269.46l-.01-2.837.005-3.123-.007-3.314q-.007-5.524-.004-11.048l-.01-7.898q-.012-9.63-.012-19.26 0-7.827-.006-15.654-.014-22.181-.012-44.362v-4.837q-.002-19.413-.023-38.826-.023-19.926-.02-39.85.001-11.19-.014-22.38-.015-9.527-.005-19.055.007-4.86-.005-9.723c-.008-3.512-.003-7.024.005-10.537l-.016-3.11C-.22 4.782-.22 4.782 2 1 4.856-.428 7.277-.12 10.47-.114M255 0q6.775-.112 13.55-.165 2.298-.022 4.596-.061c15.16-.253 27.75 2.029 39.44 12.554 10.998 11.62 14.57 24.57 14.554 40.25l.01 2.866q.01 4.738.011 9.476l.015 6.807q.019 9.231.024 18.464l.012 11.532a39055 39055 0 0 1 .026 34.011v2.067l.002 4.146v2.078q.009 16.683.046 33.365.035 17.139.037 34.278 0 9.619.025 19.237.023 9.039.01 18.079-.002 3.32.013 6.64c.013 3.018.007 6.035-.004 9.052l.025 2.665c-.042 5.163-.557 8.824-4.392 12.659-1.978.11-3.96.15-5.94.161l-3.854.03-4.198.012-4.279.017q-4.492.015-8.983.02c-3.84.006-7.679.03-11.518.058-2.947.019-5.895.024-8.843.026q-2.122.004-4.246.024c-1.98.017-3.96.013-5.94.008l-3.415.011C259 280 259 280 257.175 278.665c-2.14-3.032-2.3-5.728-2.298-9.313l-.006-2.91.009-3.205-.003-3.398q0-5.666.01-11.332l-.001-8.1q0-8.733.008-17.468.011-12.628.012-25.256.004-20.487.019-40.975.014-19.903.02-39.807v-2.478l.005-12.306Q254.966 51.06 255 0"/></svg>